<?xml version="1.0"?>
<svg xmlns="http://www.w3.org/2000/svg" viewBox="0 0 80 80">
    <path d="M 29.849609 12 L 9.9785156 68 L 21.884766 68 L 26.523438 54 L 44.947266 54 L 49.513672 68 L 62.021484 68 L 42.113281 12 L 29.849609 12 z M 31.261719 14 L 40.701172 14 L 59.1875 66 L 50.964844 66 L 46.400391 52 L 45.673828 52 L 25.080078 52 L 20.439453 66 L 12.810547 66 L 31.261719 14 z M 34.730469 22.291016 L 26.669922 47 L 28.048828 47 L 44.802734 47 L 36.820312 22.291016 L 34.730469 22.291016 z M 61 25 L 61 31 L 55 31 L 55 37 L 61 37 L 61 43 L 67 43 L 67 37 L 73 37 L 73 31 L 72 31 L 67 31 L 67 25 L 61 25 z M 35.771484 25.550781 L 42.054688 45 L 29.425781 45 L 35.771484 25.550781 z M 63 27 L 65 27 L 65 33 L 71 33 L 71 35 L 65 35 L 65 41 L 63 41 L 63 35 L 57 35 L 57 33 L 63 33 L 63 27 z M 28 57 A 1 1 0 0 0 27 58 A 1 1 0 0 0 28 59 A 1 1 0 0 0 29 58 A 1 1 0 0 0 28 57 z M 32 57 A 1 1 0 0 0 31 58 A 1 1 0 0 0 32 59 A 1 1 0 0 0 33 58 A 1 1 0 0 0 32 57 z M 36 57 A 1 1 0 0 0 35 58 A 1 1 0 0 0 36 59 A 1 1 0 0 0 37 58 A 1 1 0 0 0 36 57 z M 40 57 A 1 1 0 0 0 39 58 A 1 1 0 0 0 40 59 A 1 1 0 0 0 41 58 A 1 1 0 0 0 40 57 z M 44 57 A 1 1 0 0 0 43 58 A 1 1 0 0 0 44 59 A 1 1 0 0 0 45 58 A 1 1 0 0 0 44 57 z"/>
</svg>
